<?xml version="1.0" encoding="utf-8"?>
<!DOCTYPE svg PUBLIC "-//W3C//DTD SVG 20010904//EN" "http://www.w3.org/TR/2001/REC-SVG-20010904/DTD/svg10.dtd">
<svg version="1.0" xmlns="http://www.w3.org/2000/svg" width="1360px" height="860px" viewBox="0 0 1360 860" preserveAspectRatio="xMidYMid meet">
 <g fill="#75c0fb">
  <path d="M418 783.6 c0 -0.2 3.1 -8.2 6.9 -17.7 106.5 -268 276.5 -427 502.1 -469.4 75.7 -14.2 157.5 -14.9 242 -1.9 59 9 121.7 25.7 174.2 46.2 l16.8 6.5 0 193.8 0 193.9 -2.7 0 c-1.5 0 -5.4 -1.8 -8.7 -4 -13.6 -8.8 -31.9 -15.6 -48.4 -18 -16.5 -2.4 -32.5 3.2 -37.8 13.2 -2.1 4 -1.7 7.6 1.4 14.3 6.4 13.5 24.7 28.2 45.5 36.6 4.6 1.8 5.7 2.7 5.7 4.6 l0 2.3 -448.5 0 c-246.7 0 -448.5 -0.2 -448.5 -0.4z m525.1 -79.1 c34.4 -6 66.3 -23.5 93.1 -51.3 20.4 -21.2 33.6 -44.3 38.9 -68.2 7.1 -32.1 -6.4 -62.3 -34.1 -76.5 -27.4 -13.9 -61 -11.5 -98.1 7.1 -18.7 9.3 -30.8 18.2 -46.9 34.3 -25.8 25.9 -39.6 51.6 -43.2 80.6 -1.9 15.5 2 31.1 11.3 45 5.7 8.5 11.7 14.1 20.9 19.5 16.2 9.6 37.6 13.1 58.1 9.5z m-382.8 -14.8 c10.3 -4.7 20 -12 32.3 -24.2 22 -22 39 -48.2 47.5 -73.7 6.9 -20.5 4.1 -34.4 -7.4 -37.3 -7.4 -1.9 -27.3 9.5 -43.3 24.8 -29 27.6 -53.5 71.1 -53.8 95.2 -0.1 6.8 0.3 8.6 2.2 11.8 1.3 2 3.6 4.4 5 5.2 3.7 2.1 10.6 1.4 17.5 -1.8z m676.1 -127.1 c5.2 -2.2 9 -7.9 8.9 -13.4 -0.1 -12.8 -14.7 -34.1 -32.2 -47.1 -13.5 -10 -29.5 -16.1 -37 -14.1 -4.7 1.2 -8.7 4.2 -10.6 8 -4.7 9.1 3 26.2 19 42.5 18.7 19.1 40.1 29 51.9 24.1z m-377.4 -111.4 c40.4 -10.7 74.9 -35.5 85 -61.2 2.7 -6.8 2.5 -11.6 -0.6 -17.9 -4.2 -8.5 -13.2 -13.9 -27.4 -16.8 -27.9 -5.5 -77.2 11.9 -104.5 36.9 -11.2 10.3 -19 21.9 -21.6 32.1 -3 12.2 8.1 24.7 25.9 29.2 9.5 2.4 29.1 1.4 43.2 -2.3z m416.1 -43.7 c6.2 -2.2 12.3 -7.5 14.3 -12.6 1.6 -3.8 1.6 -4.5 0.1 -9 -7.1 -21.3 -41.1 -42.9 -75.3 -47.9 -16.5 -2.4 -32.5 3.2 -37.8 13.2 -2.1 4 -1.7 7.6 1.4 14.3 8.8 18.5 37.3 36.9 66.8 43 8.6 1.8 24.2 1.3 30.5 -1z"/>
 </g>
 <g fill="#559df2">
  <path d="M1312 783.2 c0 -0.5 -2.6 -1.9 -5.7 -3.1 -27.9 -11.2 -48.7 -32.1 -48.5 -48.6 0.1 -12 8.8 -19.2 26.2 -21.7 18.6 -2.8 47.2 5 67.6 18.2 3.3 2.2 6.6 4 7.2 4 0.9 0 1.2 6.7 1.2 26 l0 26 -24 0 c-13.2 0 -24 -0.4 -24 -0.8z"/>
  <path d="M909.2 707.9 c-13.5 -2.3 -28.7 -9.3 -38.4 -17.9 -5.8 -5.1 -13.9 -16.9 -16.8 -24.7 -10.5 -27.8 -3.9 -61.1 18.8 -95.3 8.5 -12.7 31.8 -35.7 45.6 -44.9 44.6 -29.6 91.5 -37 125.6 -19.5 23.5 12 36 33.7 36 62.3 -0.1 30.3 -14 60.5 -40.8 88.3 -26.8 27.8 -58.7 45.3 -93.1 51.3 -9.1 1.6 -28.4 1.8 -36.9 0.4z"/>
  <path d="M542.5 695.5 c-8 -2.8 -11 -9.9 -10.2 -23.5 1.6 -26.3 25.2 -68.1 54 -95.7 36.1 -34.4 65.5 -33.4 60.7 2.1 -3.7 26.8 -23.7 62.3 -50.5 89.2 -15.9 16 -28.6 24.6 -41 27.9 -7.1 1.8 -7.9 1.8 -13 0z"/>
  <path d="M1217 565.1 c-12.5 -4 -23.5 -11.3 -35.5 -23.6 -13.9 -14.1 -20.4 -26.6 -20.5 -39.1 0 -8.1 2.1 -12.4 7.7 -15.7 19.5 -11.3 63.5 16.4 77.1 48.6 2 4.8 2.6 7.9 2.7 13.8 0 6.8 -0.3 7.9 -2.9 11.3 -1.6 2.1 -4.4 4.4 -6.2 5.2 -4.6 1.9 -15.7 1.7 -22.4 -0.5z"/>
  <path d="M812.8 456.5 c-46.3 -11.7 -29.6 -61.2 30.3 -89.9 44.8 -21.6 91.8 -20.4 103.3 2.5 14 28.2 -27.3 69.9 -84.4 85.1 -10 2.6 -13.5 3.1 -27.5 3.4 -11.7 0.3 -17.5 0 -21.7 -1.1z"/>
  <path d="M1241.6 411.5 c-37 -7.7 -70 -33.6 -69.8 -55 0 -5.9 1.7 -9.7 5.9 -13.7 7.1 -6.7 22.2 -10 37.6 -8 44.9 5.6 86.2 39.2 77.3 62.7 -2.1 5.4 -8 10.7 -14.5 13.1 -6.3 2.3 -27.2 2.8 -36.5 0.9z"/>
 </g>
 <g fill="#ffffff">
  <path d="M159 699 c-1.1 -1.1 -2 -2.6 -2 -3.3 0 -1.6 3.2 -4.7 4.8 -4.7 1.5 0 5.2 3.6 5.2 5 0 1.3 -3.7 5 -5 5 -0.5 0 -1.9 -0.9 -3 -2z"/>
  <path d="M377 671 c-1.1 -1.1 -2 -2.6 -2 -3.3 0 -1.6 3.2 -4.7 4.8 -4.7 1.5 0 5.2 3.6 5.2 5 0 1.3 -3.7 5 -5 5 -0.5 0 -1.9 -0.9 -3 -2z"/>
  <path d="M305 576 c-1.1 -1.1 -2 -2.6 -2 -3.3 0 -1.6 3.2 -4.7 4.8 -4.7 1.5 0 5.2 3.6 5.2 5 0 1.3 -3.7 5 -5 5 -0.5 0 -1.9 -0.9 -3 -2z"/>
  <path d="M91 507 c-1.1 -1.1 -2 -2.6 -2 -3.3 0 -1.6 3.2 -4.7 4.8 -4.7 1.5 0 5.2 3.6 5.2 5 0 1.3 -3.7 5 -5 5 -0.5 0 -1.9 -0.9 -3 -2z"/>
  <path d="M561 300 c-1.1 -1.1 -2 -2.6 -2 -3.3 0 -1.6 3.2 -4.7 4.8 -4.7 1.5 0 5.2 3.6 5.2 5 0 0.6 -0.9 1.9 -2 3 -1.1 1.1 -2.4 2 -3 2 -0.5 0 -1.9 -0.9 -3 -2z"/>
  <path d="M811 279 c-1.1 -1.1 -2 -2.6 -2 -3.3 0 -1.6 3.2 -4.7 4.8 -4.7 1.5 0 5.2 3.6 5.2 5 0 1.3 -3.7 5 -5 5 -0.5 0 -1.9 -0.9 -3 -2z"/>
  <path d="M1143 263 c-1.1 -1.1 -2 -2.6 -2 -3.3 0 -1.6 3.2 -4.7 4.8 -4.7 1.5 0 5.2 3.6 5.2 5 0 1.3 -3.7 5 -5 5 -0.5 0 -1.9 -0.9 -3 -2z"/>
  <path d="M1333 163 c-1.1 -1.1 -2 -2.6 -2 -3.3 0 -1.6 3.2 -4.7 4.8 -4.7 1.5 0 5.2 3.6 5.2 5 0 1.3 -3.7 5 -5 5 -0.5 0 -1.9 -0.9 -3 -2z"/>
  <path d="M616 162 c-1.1 -1.1 -2 -2.6 -2 -3.3 0 -1.6 3.2 -4.7 4.8 -4.7 1.5 0 5.2 3.6 5.2 5 0 1.3 -3.7 5 -5 5 -0.5 0 -1.9 -0.9 -3 -2z"/>
  <path d="M974 102 c-1.1 -1.1 -2 -2.6 -2 -3.3 0 -1.6 3.2 -4.7 4.8 -4.7 1.5 0 5.2 3.6 5.2 5 0 1.3 -3.7 5 -5 5 -0.5 0 -1.9 -0.9 -3 -2z"/>
  <path d="M466 81 c-1.1 -1.1 -2 -2.6 -2 -3.3 0 -1.6 3.2 -4.7 4.8 -4.7 1.5 0 5.2 3.6 5.2 5 0 1.3 -3.7 5 -5 5 -0.5 0 -1.9 -0.9 -3 -2z"/>
  <path d="M1296 67 c-1.1 -1.1 -2 -2.6 -2 -3.3 0 -1.6 3.2 -4.7 4.8 -4.7 1.5 0 5.2 3.6 5.2 5 0 1.3 -3.7 5 -5 5 -0.5 0 -1.9 -0.9 -3 -2z"/>
  <path d="M803 51 c-1.1 -1.1 -2 -2.6 -2 -3.3 0 -1.6 3.2 -4.7 4.8 -4.7 1.5 0 5.2 3.6 5.2 5 0 1.3 -3.7 5 -5 5 -0.5 0 -1.9 -0.9 -3 -2z"/>
 </g>
</svg>