<?xml version="1.0" encoding="utf-8"?>
<!DOCTYPE svg PUBLIC "-//W3C//DTD SVG 20010904//EN" "http://www.w3.org/TR/2001/REC-SVG-20010904/DTD/svg10.dtd">
<svg version="1.0" xmlns="http://www.w3.org/2000/svg" width="1360px" height="860px" viewBox="0 0 1360 860" preserveAspectRatio="xMidYMid meet">
 <g fill="#579ff2">
  <path d="M1298.9 780.7 c-15.3 -6.7 -30.5 -18.3 -37.8 -29 -4.9 -7.2 -6.4 -12.5 -6 -21.6 0.5 -10.5 3.2 -14.7 12.6 -19.3 l6.8 -3.3 18 0 c16.7 0 18.7 0.2 28 2.8 10.7 3 27.4 10.5 34.9 15.7 l4.6 3.1 0 27.4 0 27.5 -26.7 0 -26.8 0 -7.6 -3.3z"/>
  <path d="M907.5 710.6 c-17.7 -3 -30.3 -9.2 -41.5 -20.5 -14 -14.1 -19.2 -28 -19.2 -52.1 0 -25 5.8 -43.7 21 -67 23.9 -37 63.3 -64.5 106.7 -74.6 6.4 -1.5 12 -1.9 28.5 -1.9 18.4 0 21.3 0.2 28.4 2.3 25.2 7.3 42.7 24.5 49.3 48.2 1.3 5 1.7 10.3 1.8 23 0 14.1 -0.4 17.8 -2.4 25.5 -7.5 29.1 -25.7 56.7 -51.6 78.3 -22.6 19 -47.7 31.6 -74 37.3 -11.9 2.6 -36.1 3.3 -47 1.5z"/>
  <path d="M537.3 697.1 c-4.5 -2.8 -6.3 -6 -7.6 -13.5 -4.6 -26.9 17.4 -73.4 50.5 -106.7 20.5 -20.6 37.9 -29.9 53.7 -28.6 7.6 0.6 10.7 2.6 13.9 8.7 3 5.9 3.1 20.8 0.2 32.8 -9.4 39.2 -48.8 90 -81.8 105.5 -5.7 2.7 -8.1 3.2 -16.2 3.5 -8.2 0.3 -10 0 -12.7 -1.7z"/>
  <path d="M1216.5 568.5 c-20.7 -5.7 -43.9 -25.7 -53.9 -46.4 -3.6 -7.6 -4.1 -9.4 -4.4 -17.7 -0.5 -11.6 1.7 -17.3 7.9 -20.4 5.9 -3 22 -2.8 31.2 0.5 9.8 3.4 22.7 11.8 31.6 20.5 13 12.6 20.2 25.1 22.3 38.3 2.1 13.7 -2 23.2 -11 25.7 -5.1 1.4 -17.7 1.1 -23.7 -0.5z"/>
  <path d="M814.3 460 c-7.2 -1.3 -15.4 -4.6 -20.2 -8 -12.1 -8.8 -14.3 -26.1 -5.5 -44 3 -5.9 5.9 -9.7 13.8 -17.6 5.6 -5.6 13.5 -12.4 17.6 -15.1 17 -11.4 41.8 -21.5 60.5 -24.7 12.1 -2.1 37 -2.1 45 -0.1 18.5 4.8 26.5 13.8 26.5 29.6 0 15.2 -5.7 26.6 -20.7 41 -18.4 17.7 -44.7 31.1 -73.3 37.4 -8.8 1.9 -36.1 2.8 -43.7 1.5z"/>
  <path d="M1246 415.3 c-16.5 -2.6 -33.7 -8.8 -46.3 -16.7 -11.6 -7.3 -17 -11.9 -22.8 -19.6 -6.4 -8.5 -8.2 -14 -7.8 -23.9 0.5 -10.5 3.2 -14.7 12.6 -19.3 l6.8 -3.3 18 0 c16.7 0 18.7 0.2 28 2.8 19.2 5.4 37.8 15.8 49.7 28 16.6 17.1 16.9 39.9 0.7 48.3 -6.9 3.5 -27.6 5.5 -38.9 3.7z"/>
 </g>
 <g fill="#6ab4f8">
  <path d="M1296.3 781 c-14.7 -6.8 -30.2 -19.3 -37 -29.8 -7 -10.8 -8 -24.6 -2.4 -33.3 10.7 -17 52.9 -17.1 86.3 -0.3 12.6 6.3 16.8 9.5 16.8 12.6 0 3.6 -1 3.5 -6.9 -0.7 -7.4 -5.3 -24.5 -13.1 -35.6 -16.2 -8.9 -2.5 -11.7 -2.8 -25 -2.8 -15 0 -15 0 -21.8 3.3 -8.1 4 -11.8 8.7 -12.5 16.1 -1.5 16 17.5 36.4 44.7 48.2 4.7 2 8.7 4.1 8.9 4.8 0.8 2.3 -9.1 1.1 -15.5 -1.9z"/>
  <path d="M906.4 712 c-8.8 -1.6 -20.6 -5.8 -27.4 -9.7 -10.1 -5.9 -20.9 -17.3 -25.9 -27.4 -6.5 -13.3 -7.6 -18.8 -7.5 -37.9 0.1 -14.5 0.4 -17.7 2.7 -26.3 11.2 -41.8 44.5 -80.3 88.7 -102.3 12.8 -6.4 24.8 -10.7 38.3 -13.6 14.5 -3.1 42.4 -3.1 54.2 0 25.2 6.8 43.4 22.9 51 45.3 2.5 7.4 2.9 10.2 3.3 23.3 0.6 22.3 -2.2 36.2 -11.4 55.2 -21.6 44.5 -68.3 81 -117.4 91.9 -8.7 2 -40.6 2.9 -48.6 1.5z m43.4 -5.5 c59.1 -11.9 113.1 -61 127.3 -116 3 -11.7 3.3 -32.4 0.5 -42.5 -6.4 -23.7 -24 -40.9 -49.2 -48.2 -6.9 -2 -10.1 -2.3 -25.4 -2.3 -13.5 0 -19.3 0.4 -25.5 1.9 -61.6 14.3 -114.2 64.3 -126.1 119.7 -2.2 10.7 -2 28.4 0.5 38.2 5.7 21.9 22.1 39.3 44.1 46.8 14.8 5 36 5.9 53.8 2.4z"/>
  <path d="M539.5 699.5 c-2.2 -0.8 -5.2 -2.8 -6.7 -4.4 -4 -4.5 -5.1 -10 -4.6 -23.1 0.4 -9.9 1 -13 4.1 -22.3 5.9 -17.2 17.1 -37.6 30.6 -55.2 6.8 -9 24.7 -27 32.6 -32.9 15.3 -11.4 24.4 -15 37 -14.5 6.6 0.3 9 0.9 11.2 2.5 12.4 9.3 10.3 38 -5.1 68.4 -9.9 19.7 -21.2 35.4 -37.1 51.9 -23.7 24.6 -46 35.3 -62 29.6z m23.8 -7.3 c38.8 -18.1 83.8 -83 83.7 -120.7 -0.1 -29.9 -29.6 -26 -63.8 8.4 -26.1 26.3 -46.3 62 -50.2 88.9 -1.9 12.7 0.5 21 7.3 25.3 4.7 3 14.4 2.2 23 -1.9z"/>
  <path d="M1215 569.4 c-6.8 -1.8 -18.3 -8 -25.9 -13.8 -7.8 -6 -19.9 -19.1 -24 -25.9 -6.4 -10.8 -8.4 -17.3 -8.5 -27.2 -0.1 -10.9 2.2 -15.9 8.8 -19.6 3.6 -2.1 5.3 -2.4 15.1 -2.3 9.5 0 11.9 0.4 18 2.7 21.1 8.3 44.5 30.7 51.5 49.4 2.5 6.6 3.6 16.9 2.6 23.7 -0.8 5.4 -5.3 11.1 -10.3 13.2 -4.3 1.8 -20.2 1.7 -27.3 -0.2z m22.2 -3.4 c11.3 -3.2 14.3 -16.7 7.3 -32.6 -6 -13.6 -20.1 -29 -34.8 -38.2 -11.4 -7.1 -20.2 -10.2 -29.5 -10.2 -9.7 0 -14.2 2.2 -17.2 8.6 -8.4 17.3 14.2 51.9 43.5 66.5 12.9 6.4 22.3 8.2 30.7 5.9z"/>
  <path d="M810.4 460.5 c-11.5 -2.5 -20.4 -8.3 -25.2 -16.4 -2.5 -4.3 -2.7 -5.4 -2.7 -15.7 0 -11 0 -11.1 4.3 -19.7 8.3 -16.8 27 -33.2 51.7 -45.3 22.5 -11 38.2 -15.2 60.5 -16.1 28.1 -1.1 45.1 5.2 51.6 19.2 3.2 6.8 3.4 20.8 0.4 29.3 -9.7 27.8 -54.1 57.3 -96.9 64.6 -11.5 1.9 -35 2 -43.7 0.1z m44.1 -5 c19.4 -4.1 40.9 -13 57 -23.6 10 -6.7 24.3 -20.4 29.6 -28.3 4.6 -7.1 7.9 -16.9 7.9 -23.5 0 -9.2 -7 -19 -16.5 -23.2 -11.6 -5.1 -31 -6.4 -49 -3.3 -18.7 3.2 -43.5 13.3 -60.5 24.7 -4.1 2.7 -12 9.5 -17.6 15.1 -10.9 11 -16.5 20.1 -18.3 30.1 -3.1 16.7 8.6 29.6 30.2 33.5 7.4 1.3 27.8 0.5 37.2 -1.5z"/>
  <path d="M1241.5 416 c-28.1 -5.1 -56.5 -21.6 -68.2 -39.8 -7 -10.8 -8 -24.6 -2.4 -33.3 11 -17.5 53.8 -17.1 88.2 0.7 16.2 8.4 30.8 21.5 35.8 32.4 2.9 6.4 3.9 17.2 2.2 23.7 -1.5 5.6 -7.8 11.7 -14.9 14.4 -4.8 1.8 -8.1 2.2 -20.7 2.5 -8.2 0.2 -17.2 -0.1 -20 -0.6z m30.7 -4.4 c8.1 -1.8 11.7 -3.6 16.1 -8.1 11.4 -11.7 3.2 -31.6 -19.5 -47.9 -9.1 -6.4 -25.4 -14 -37.3 -17.3 -8.9 -2.5 -11.7 -2.8 -25 -2.8 -15 0 -15 0 -21.8 3.3 -15.1 7.4 -16.8 21.2 -4.8 37.2 13.3 17.5 40.4 31.8 69.1 36.3 5.8 0.9 17 0.6 23.2 -0.7z"/>
 </g>
 <g fill="#75c0fb">
  <path d="M418 783.6 c0 -0.2 3.1 -8.2 6.9 -17.7 106.5 -268 276.5 -427 502.1 -469.4 75.7 -14.2 157.5 -14.9 242 -1.9 59 9 121.7 25.7 174.2 46.2 l16.8 6.5 0 191.8 c0 143.6 -0.3 191.9 -1.1 191.9 -0.7 0 -3.6 -1.6 -6.6 -3.6 -20.1 -13.3 -49.6 -21.4 -68.6 -18.6 -31 4.5 -36.2 27.4 -11.5 50.9 7.7 7.3 19.2 14.9 29.4 19.4 4.1 1.7 7.4 3.6 7.4 4 0 0.5 -195.5 0.9 -445.5 0.9 -245 0 -445.5 -0.2 -445.5 -0.4z m534 -76.1 c62.3 -13.6 119.1 -68.9 128 -124.7 2 -12.3 0.9 -29.5 -2.5 -39.7 -7.6 -22.4 -25.8 -38.6 -51 -45.2 -11.5 -3.1 -34 -3.1 -48.2 -0.1 -59.2 12.7 -112.5 61.3 -127 115.9 -3.3 12.5 -3.8 32.8 -1 43.3 6.1 23.2 23.4 41.4 46.1 48.6 4.3 1.3 10.2 2.9 13 3.4 7.5 1.3 33.8 0.4 42.6 -1.5z m-396.7 -11 c13 -3.4 27.5 -13.3 43.2 -29.6 41.1 -42.6 62.2 -99.4 42.3 -114.2 -6 -4.5 -17.8 -3.1 -29.8 3.6 -13 7.2 -33.5 25.9 -45.1 41.2 -29.5 38.6 -42.8 80.5 -30.1 94.6 2.5 2.8 8.7 5.8 12.2 5.9 0.9 0 4.2 -0.7 7.3 -1.5z m684 -129.9 c7.7 -3.2 11.7 -11.6 10.2 -21.4 -3.2 -21.5 -28.4 -48.9 -54 -58.8 -9.7 -3.8 -21.1 -4 -27.1 -0.5 -14.9 8.5 -10.3 32.1 10.5 54.3 16.7 17.8 34.5 27.6 50.9 27.7 3.4 0.1 7.7 -0.5 9.5 -1.3z m-388.2 -109.2 c42.8 -7.3 87.2 -36.8 96.9 -64.6 9.2 -26.5 -11.5 -44.4 -49 -42.4 -19.7 1 -36.3 5.7 -57.5 16 -24.7 12.1 -43.4 28.5 -51.7 45.3 -4 8 -4.3 9.2 -4.3 16.7 0 7 0.4 8.7 2.7 12.7 4.8 8.1 13.7 13.9 25.2 16.4 8.5 1.9 26.4 1.8 37.7 -0.1z m428.1 -46.3 c19 -7.3 20.8 -26.1 4.2 -44 -16 -17.3 -42 -30 -68.1 -33.3 -29 -3.7 -48.8 9.3 -43.8 28.6 4.9 18.7 30.1 38.7 59.4 47.2 12.9 3.7 17.5 4.3 30.6 4 9.3 -0.3 13.3 -0.8 17.7 -2.5z"/>
 </g>
 <g fill="#ffffff">
  <path d="M159 699 c-1.1 -1.1 -2 -2.6 -2 -3.3 0 -1.6 3.2 -4.7 4.8 -4.7 1.5 0 5.2 3.6 5.2 5 0 1.3 -3.7 5 -5 5 -0.5 0 -1.9 -0.9 -3 -2z"/>
  <path d="M377 671 c-1.1 -1.1 -2 -2.6 -2 -3.3 0 -1.6 3.2 -4.7 4.8 -4.7 1.5 0 5.2 3.6 5.2 5 0 1.3 -3.7 5 -5 5 -0.5 0 -1.9 -0.9 -3 -2z"/>
  <path d="M91 507 c-1.1 -1.1 -2 -2.6 -2 -3.3 0 -1.6 3.2 -4.7 4.8 -4.7 1.5 0 5.2 3.6 5.2 5 0 1.3 -3.7 5 -5 5 -0.5 0 -1.9 -0.9 -3 -2z"/>
  <path d="M369 459 c-1.1 -1.1 -2 -2.6 -2 -3.3 0 -1.6 3.2 -4.7 4.8 -4.7 1.5 0 5.2 3.6 5.2 5 0 0.6 -0.9 1.9 -2 3 -1.1 1.1 -2.4 2 -3 2 -0.5 0 -1.9 -0.9 -3 -2z"/>
  <path d="M561 300 c-1.1 -1.1 -2 -2.6 -2 -3.3 0 -1.6 3.2 -4.7 4.8 -4.7 1.5 0 5.2 3.6 5.2 5 0 0.6 -0.9 1.9 -2 3 -1.1 1.1 -2.4 2 -3 2 -0.5 0 -1.9 -0.9 -3 -2z"/>
  <path d="M811 279 c-1.1 -1.1 -2 -2.6 -2 -3.3 0 -1.6 3.2 -4.7 4.8 -4.7 1.5 0 5.2 3.6 5.2 5 0 1.3 -3.7 5 -5 5 -0.5 0 -1.9 -0.9 -3 -2z"/>
  <path d="M1143 263 c-1.1 -1.1 -2 -2.6 -2 -3.3 0 -1.6 3.2 -4.7 4.8 -4.7 1.5 0 5.2 3.6 5.2 5 0 1.3 -3.7 5 -5 5 -0.5 0 -1.9 -0.9 -3 -2z"/>
  <path d="M240 252 c-1.1 -1.1 -2 -2.6 -2 -3.3 0 -1.6 3.2 -4.7 4.8 -4.7 1.5 0 5.2 3.6 5.2 5 0 0.6 -0.9 1.9 -2 3 -1.1 1.1 -2.4 2 -3 2 -0.5 0 -1.9 -0.9 -3 -2z"/>
  <path d="M1333 163 c-1.1 -1.1 -2 -2.6 -2 -3.3 0 -1.6 3.2 -4.7 4.8 -4.7 1.5 0 5.2 3.6 5.2 5 0 1.3 -3.7 5 -5 5 -0.5 0 -1.9 -0.9 -3 -2z"/>
  <path d="M616 162 c-1.1 -1.1 -2 -2.6 -2 -3.3 0 -1.6 3.2 -4.7 4.8 -4.7 1.5 0 5.2 3.6 5.2 5 0 1.3 -3.7 5 -5 5 -0.5 0 -1.9 -0.9 -3 -2z"/>
  <path d="M974 102 c-1.1 -1.1 -2 -2.6 -2 -3.3 0 -1.6 3.2 -4.7 4.8 -4.7 1.5 0 5.2 3.6 5.2 5 0 1.3 -3.7 5 -5 5 -0.5 0 -1.9 -0.9 -3 -2z"/>
  <path d="M466 81 c-1.1 -1.1 -2 -2.6 -2 -3.3 0 -1.6 3.2 -4.7 4.8 -4.7 1.5 0 5.2 3.6 5.2 5 0 1.3 -3.7 5 -5 5 -0.5 0 -1.9 -0.9 -3 -2z"/>
  <path d="M1296 67 c-1.1 -1.1 -2 -2.6 -2 -3.3 0 -1.6 3.2 -4.7 4.8 -4.7 1.5 0 5.2 3.6 5.2 5 0 1.3 -3.7 5 -5 5 -0.5 0 -1.9 -0.9 -3 -2z"/>
  <path d="M803 51 c-1.1 -1.1 -2 -2.6 -2 -3.3 0 -1.6 3.2 -4.7 4.8 -4.7 1.5 0 5.2 3.6 5.2 5 0 1.3 -3.7 5 -5 5 -0.5 0 -1.9 -0.9 -3 -2z"/>
 </g>
</svg>